<mxfile host="app.diagrams.net" modified="2023-11-07T05:26:36.429Z" agent="Mozilla/5.0 (X11; Linux x86_64) AppleWebKit/537.36 (KHTML, like Gecko) Chrome/118.0.0.0 Safari/537.36" version="22.0.8" etag="RQACIrntR9oSIyhzD32Z" type="github">
  <diagram name="Page-1" id="Nkr8TpWQaP8W8WFVbnt2">
    <mxGraphModel>
      <root>
        <mxCell id="0" />
        <mxCell id="1" parent="0" />
      </root>
    </mxGraphModel>
  </diagram>
</mxfile>
